<svg xmlns="http://www.w3.org/2000/svg" xmlns:xlink="http://www.w3.org/1999/xlink" viewBox="0 0 1920 1080"><defs><style>.cls-1,.cls-10,.cls-35{fill:none;}.cls-2{isolation:isolate;}.cls-3{fill:#5525af;}.cls-4{fill:#4d1e97;}.cls-42,.cls-43,.cls-5{fill:#8d57ff;}.cls-41,.cls-6{fill:#edeafd;}.cls-7{clip-path:url(#clip-path);}.cls-8{fill:#93f6e1;}.cls-9{fill:#ddd6ff;}.cls-10{stroke:#5525af;stroke-width:7px;}.cls-10,.cls-35{stroke-linecap:round;stroke-linejoin:round;}.cls-11{fill:#d2cec1;}.cls-12{fill:#f1f2f2;}.cls-13{fill:#bfbfbf;}.cls-14{fill:#a1a3a4;}.cls-15{fill:#4d4d4d;}.cls-16{fill:#b3b3b3;}.cls-17{fill:#283035;}.cls-18{fill:#fff;}.cls-19{fill:#333;}.cls-20{fill:#666;}.cls-21{fill:#ea4546;}.cls-22{fill:#d62821;}.cls-23{fill:#bcbdbe;}.cls-24{fill:#ccc;}.cls-25{fill:#ffb294;}.cls-26,.cls-30{fill:#4e6b7e;}.cls-27{fill:#ff525f;}.cls-28{fill:#92201a;}.cls-29{fill:#32526e;}.cls-30{opacity:0.5;mix-blend-mode:multiply;}.cls-31{fill:#bb9c73;}.cls-32{fill:#807151;}.cls-33{fill:#d0ad7f;}.cls-34{fill:#f9d9a6;}.cls-35{stroke:#32526e;stroke-width:5px;}.cls-36{fill:#8c96ab;}.cls-37{fill:#e3d8d4;}.cls-38{fill:#cbb5b1;}.cls-39{fill:#232323;}.cls-40{fill:#444;}.cls-41,.cls-42{font-size:43.14px;}.cls-41,.cls-42,.cls-43{font-family:OpenSans-Bold, Open Sans;font-weight:700;}.cls-43{font-size:30.12px;}</style><clipPath id="clip-path"><path class="cls-1" d="M1814.19,359.53,1386,111.56c-23.26-13.47-63.93-11.85-90.83,3.64L396.43,632.41c-26.91,15.48-29.86,39-6.6,52.43l428.22,248c23.26,13.48,63.93,11.85,90.83-3.64L1807.6,412C1834.5,396.48,1837.45,373,1814.19,359.53Z"/></clipPath></defs><g class="cls-2"><g id="Speed"><rect class="cls-3" y="-0.5" width="1920" height="1080"/><path class="cls-4" d="M805.59,1014.47,359.94,756.4c-14.64-8.48-21.46-19.91-21-31.8l-.1,0L339,660l24.79,29c1.6-1.06,3.22-2.12,5-3.13L1280.48,161.2c36.19-20.83,90.9-23,122.2-4.89l439.39,254.44c8.89-9.73,27.54-30.29,27.54-30.29l-.21,63.25h0c.66,14.26-9.49,29.45-29.93,41.22L927.79,1009.58C891.6,1030.41,836.89,1032.6,805.59,1014.47Z"/><path class="cls-5" d="M1280.48,161.2c36.19-20.83,90.9-23,122.2-4.89l439.39,254.44c8.89-9.73,27.54-30.29,27.54-30.29l-.21,63.25h0c.66,14.26-9.49,29.45-29.93,41.21L927.79,1009.58c-18.88,10.87-42.79,16.61-65.8,17.09l.87-625.13Z"/><path class="cls-5" d="M1848.52,349.36,1402.87,91.29c-31.3-18.12-86-15.93-122.2,4.9L369,620.85c-36.19,20.83-40.17,52.41-8.87,70.54L805.78,949.46c31.3,18.12,86,15.93,122.2-4.9L1839.65,419.9C1875.84,399.07,1879.81,367.49,1848.52,349.36Z"/><path class="cls-6" d="M805.44,956.36,359.79,698.29C343.65,688.94,337,676,339.17,662.83c.79,10.71,7.66,20.85,21,28.56L805.78,949.46c31.3,18.13,86,15.93,122.2-4.9L1839.65,419.9c17.52-10.09,27.42-22.7,29.49-35.08,1.07,14.49-9,30-29.83,42L927.64,951.46C891.45,972.3,836.74,974.49,805.44,956.36Z"/><g class="cls-7"><polygon class="cls-6" points="919.89 999.18 268.42 623.05 1280.43 38.77 1931.9 414.9 919.89 999.18"/><polygon class="cls-8" points="1089.79 148.84 1302.16 271.45 1423.76 121.52 1280.43 38.77 1089.79 148.84"/><polygon class="cls-9" points="1459 141.87 1219.19 436.75 1594.33 220.17 1459 141.87"/><polygon class="cls-9" points="1057.12 167.69 1281.46 297.22 1133.89 479.81 825.26 301.65 1057.12 167.69"/><polygon class="cls-9" points="1627.39 238.97 1436.63 349.09 1566.09 423.83 1756.73 313.76 1627.39 238.97"/><polygon class="cls-9" points="1789.36 332.82 1598.6 442.94 1741.24 525.29 1931.88 415.22 1789.36 332.82"/><polygon class="cls-9" points="1523.14 651.18 1414.53 588.47 1600.16 481.3 1708.6 543.83 1523.14 651.18"/><polygon class="cls-9" points="1243.58 813 1220.63 700.42 1213.7 666.42 1179.3 497.66 1403.77 368.06 1567.23 462.31 1348.96 588.33 1490.52 670.06 1243.58 813"/><polygon class="cls-9" points="792.23 320.63 639.68 408.7 953.53 589.65 1106.38 501.89 792.23 320.63"/><polygon class="cls-8" points="1137.13 520.32 986.53 608.96 1178.95 720.06 1137.13 520.32"/><polygon class="cls-9" points="847.28 787.43 658.67 678.53 850.86 567.57 1039.48 676.47 847.28 787.43"/><polygon class="cls-9" points="1201.56 836.53 1067.82 913.75 879.2 804.85 1071.4 693.89 1186.21 760.17 1201.56 836.53"/><polygon class="cls-8" points="478.74 744.54 268.44 623.12 606.89 427.72 817.19 549.13 478.74 744.54"/><polygon class="cls-9" points="787.14 921.92 513 763.65 626.98 697.84 901.12 856.12 787.14 921.92"/><polygon class="cls-9" points="920.4 998.86 819.94 940.86 933.92 875.05 1034.38 933.05 920.4 998.86"/></g><polyline class="cls-10" points="518.5 744 849.5 552 951.5 610 1407.5 346 1501.5 400"/><polygon class="cls-5" points="1009.05 229.21 1008.72 344.79 1109.33 402.87 1109.65 287.29 1009.05 229.21"/><polygon class="cls-6" points="1109.33 402.87 1213.31 342.44 1213.64 226.85 1109.65 287.29 1109.33 402.87"/><polygon class="cls-11" points="1109.65 287.29 1213.64 226.85 1113.04 168.77 1009.05 229.21 1109.65 287.29"/><polygon class="cls-6" points="1027.76 234.33 1112.88 184.86 1194.93 232.23 1109.81 281.7 1027.76 234.33"/><polygon class="cls-9" points="1185.2 281.14 1204.61 269.86 1204.67 248.29 1185.26 259.56 1185.2 281.14"/><polygon class="cls-9" points="1186.43 279.05 1203.38 269.21 1203.43 250.37 1186.49 260.22 1186.43 279.05"/><polygon class="cls-12" points="1200.69 268.13 1200.74 251.94 1203.43 250.37 1203.38 269.21 1186.43 279.05 1186.44 276.41 1200.69 268.13"/><polygon class="cls-9" points="1185.2 316.31 1204.61 305.03 1204.67 283.46 1185.26 294.74 1185.2 316.31"/><polygon class="cls-9" points="1186.43 314.23 1203.38 304.38 1203.43 285.54 1186.49 295.39 1186.43 314.23"/><polygon class="cls-12" points="1200.69 303.3 1200.74 287.11 1203.43 285.54 1203.38 304.38 1186.43 314.23 1186.44 311.58 1200.69 303.3"/><polygon class="cls-9" points="1185.2 351.48 1204.61 340.2 1204.67 318.63 1185.26 329.91 1185.2 351.48"/><polygon class="cls-9" points="1186.43 349.4 1203.38 339.55 1203.43 320.71 1186.49 330.56 1186.43 349.4"/><polygon class="cls-12" points="1200.69 338.47 1200.74 322.28 1203.43 320.71 1203.38 339.55 1186.43 349.4 1186.44 346.75 1200.69 338.47"/><polygon class="cls-9" points="1153.86 299.29 1173.27 288.02 1173.33 266.44 1153.92 277.72 1153.86 299.29"/><polygon class="cls-9" points="1155.1 297.21 1172.04 287.36 1172.1 268.53 1155.15 278.38 1155.1 297.21"/><polygon class="cls-12" points="1169.35 286.29 1169.4 270.09 1172.1 268.53 1172.04 287.36 1155.1 297.21 1155.1 294.57 1169.35 286.29"/><polygon class="cls-9" points="1153.86 334.46 1173.27 323.19 1173.33 301.62 1153.92 312.89 1153.86 334.46"/><polygon class="cls-9" points="1155.1 332.38 1172.04 322.54 1172.1 303.7 1155.15 313.55 1155.1 332.38"/><polygon class="cls-12" points="1169.35 321.46 1169.4 305.27 1172.1 303.7 1172.04 322.54 1155.1 332.38 1155.1 329.74 1169.35 321.46"/><polygon class="cls-9" points="1153.86 369.64 1173.27 358.36 1173.33 336.79 1153.92 348.07 1153.86 369.64"/><polygon class="cls-9" points="1155.1 367.56 1172.04 357.71 1172.1 338.87 1155.15 348.72 1155.1 367.56"/><polygon class="cls-12" points="1169.35 356.63 1169.4 340.44 1172.1 338.87 1172.04 357.71 1155.1 367.56 1155.1 364.91 1169.35 356.63"/><polygon class="cls-9" points="1117.95 320.12 1137.36 308.85 1137.42 287.27 1118.01 298.55 1117.95 320.12"/><polygon class="cls-9" points="1119.18 318.04 1136.13 308.19 1136.18 289.36 1119.24 299.2 1119.18 318.04"/><polygon class="cls-12" points="1133.44 307.12 1133.49 290.92 1136.18 289.36 1136.13 308.19 1119.18 318.04 1119.19 315.4 1133.44 307.12"/><polygon class="cls-9" points="1117.95 355.29 1137.36 344.02 1137.42 322.45 1118.01 333.72 1117.95 355.29"/><polygon class="cls-9" points="1119.18 353.21 1136.13 343.37 1136.18 324.53 1119.24 334.38 1119.18 353.21"/><polygon class="cls-12" points="1133.44 342.29 1133.49 326.1 1136.18 324.53 1136.13 343.37 1119.18 353.21 1119.19 350.57 1133.44 342.29"/><polygon class="cls-9" points="1117.95 390.47 1137.36 379.19 1137.42 357.62 1118.01 368.9 1117.95 390.47"/><polygon class="cls-9" points="1119.18 388.38 1136.13 378.54 1136.18 359.7 1119.24 369.55 1119.18 388.38"/><polygon class="cls-12" points="1133.44 377.46 1133.49 361.27 1136.18 359.7 1136.13 378.54 1119.18 388.38 1119.19 385.74 1133.44 377.46"/><polygon class="cls-13" points="1204.22 226.83 1194.93 232.23 1112.88 184.86 1112.88 174.1 1204.22 226.83"/><polygon class="cls-14" points="1112.88 174.1 1112.88 184.86 1027.76 234.33 1018.47 228.97 1112.88 174.1"/><polygon class="cls-5" points="1009.41 126.64 1009.08 242.23 1109.68 300.31 1110.01 184.72 1009.41 126.64"/><polygon class="cls-6" points="1109.68 300.31 1213.67 239.88 1214 124.29 1110.01 184.72 1109.68 300.31"/><polygon class="cls-6" points="1110.01 184.72 1214 124.29 1113.4 66.21 1009.41 126.64 1110.01 184.72"/><polygon class="cls-9" points="1028.12 131.77 1113.24 82.3 1195.29 129.67 1110.17 179.14 1028.12 131.77"/><polygon class="cls-9" points="1185.56 178.57 1204.96 167.3 1205.03 145.73 1185.62 157 1185.56 178.57"/><polygon class="cls-9" points="1186.79 176.49 1203.74 166.64 1203.79 147.81 1186.85 157.66 1186.79 176.49"/><polygon class="cls-12" points="1201.05 165.57 1201.1 149.38 1203.79 147.81 1203.74 166.64 1186.79 176.49 1186.8 173.85 1201.05 165.57"/><polygon class="cls-9" points="1185.56 213.75 1204.96 202.47 1205.03 180.9 1185.62 192.18 1185.56 213.75"/><polygon class="cls-9" points="1186.79 211.66 1203.74 201.82 1203.79 182.98 1186.85 192.83 1186.79 211.66"/><polygon class="cls-12" points="1201.05 200.74 1201.1 184.55 1203.79 182.98 1203.74 201.82 1186.79 211.66 1186.8 209.02 1201.05 200.74"/><polygon class="cls-9" points="1185.56 248.92 1204.96 237.64 1205.03 216.07 1185.62 227.35 1185.56 248.92"/><polygon class="cls-9" points="1186.79 246.84 1203.74 236.99 1203.79 218.15 1186.85 228 1186.79 246.84"/><polygon class="cls-12" points="1201.05 235.91 1201.1 219.72 1203.79 218.15 1203.74 236.99 1186.79 246.84 1186.8 244.19 1201.05 235.91"/><polygon class="cls-9" points="1154.22 196.73 1173.63 185.45 1173.69 163.88 1154.28 175.16 1154.22 196.73"/><polygon class="cls-9" points="1155.45 194.65 1172.4 184.8 1172.45 165.97 1155.51 175.81 1155.45 194.65"/><polygon class="cls-12" points="1169.71 183.73 1169.76 167.53 1172.45 165.97 1172.4 184.8 1155.45 194.65 1155.46 192.01 1169.71 183.73"/><polygon class="cls-9" points="1154.22 231.9 1173.63 220.63 1173.69 199.06 1154.28 210.33 1154.22 231.9"/><polygon class="cls-9" points="1155.45 229.82 1172.4 219.97 1172.45 201.14 1155.51 210.99 1155.45 229.82"/><polygon class="cls-12" points="1169.71 218.9 1169.76 202.7 1172.45 201.14 1172.4 219.97 1155.45 229.82 1155.46 227.18 1169.71 218.9"/><polygon class="cls-9" points="1154.22 267.07 1173.63 255.8 1173.69 234.23 1154.28 245.5 1154.22 267.07"/><polygon class="cls-9" points="1155.45 264.99 1172.4 255.15 1172.45 236.31 1155.51 246.16 1155.45 264.99"/><polygon class="cls-12" points="1169.71 254.07 1169.76 237.88 1172.45 236.31 1172.4 255.15 1155.45 264.99 1155.46 262.35 1169.71 254.07"/><polygon class="cls-9" points="1118.31 217.56 1137.71 206.28 1137.78 184.71 1118.37 195.99 1118.31 217.56"/><polygon class="cls-9" points="1119.54 215.48 1136.49 205.63 1136.54 186.79 1119.6 196.64 1119.54 215.48"/><polygon class="cls-12" points="1133.8 204.56 1133.84 188.36 1136.54 186.79 1136.49 205.63 1119.54 215.48 1119.55 212.84 1133.8 204.56"/><polygon class="cls-9" points="1118.31 252.73 1137.71 241.46 1137.78 219.88 1118.37 231.16 1118.31 252.73"/><polygon class="cls-9" points="1119.54 250.65 1136.49 240.8 1136.54 221.97 1119.6 231.81 1119.54 250.65"/><polygon class="cls-12" points="1133.8 239.73 1133.84 223.53 1136.54 221.97 1136.49 240.8 1119.54 250.65 1119.55 248.01 1133.8 239.73"/><polygon class="cls-9" points="1118.31 287.9 1137.71 276.63 1137.78 255.06 1118.37 266.33 1118.31 287.9"/><polygon class="cls-9" points="1119.54 285.82 1136.49 275.98 1136.54 257.14 1119.6 266.99 1119.54 285.82"/><polygon class="cls-12" points="1133.8 274.9 1133.84 258.71 1136.54 257.14 1136.49 275.98 1119.54 285.82 1119.55 283.18 1133.8 274.9"/><polygon class="cls-5" points="1204.58 124.27 1195.29 129.67 1113.24 82.3 1113.24 71.54 1204.58 124.27"/><polygon class="cls-5" points="1113.24 71.54 1113.24 82.3 1028.12 131.77 1018.83 126.4 1113.24 71.54"/><polygon class="cls-5" points="439.38 715.27 614.02 817.39 158 1079.5 0 1079.5 0 970.5 439.38 715.27"/><polygon class="cls-4" points="614.02 817.39 613 834.5 186 1080.5 158 1079.5 614.02 817.39"/><polygon class="cls-6" points="373.2 858.74 356.16 848.9 468.25 784.18 485.3 794.02 373.2 858.74"/><polygon class="cls-6" points="220.47 946.91 203.43 937.08 315.53 872.36 332.57 882.2 220.47 946.91"/><polygon class="cls-6" points="67.75 1035.09 50.7 1025.25 162.8 960.53 179.84 970.38 67.75 1035.09"/><g class="cls-2"><path class="cls-15" d="M174.7,984.74c-14.53,8.1-26.15,1-25.94-15.84s12.15-37.08,26.69-45.18,26.15-1,26,15.84S189.24,976.64,174.7,984.74Zm17.18-39.87c.13-10.76-7.29-15.28-16.57-10.11s-16.9,18.08-17,28.83,7.28,15.28,16.56,10.11,16.9-18.08,17-28.83Z"/><path class="cls-16" d="M175.25,973.47l1.9-1.1c8-4.7,14.6-15.93,14.71-25.3,0-.86,0-1.34,0-2.2C191.75,955.47,184.34,968.15,175.25,973.47Z"/><path class="cls-15" d="M188.48,992.21c14.33-8.27,26-28.24,26.23-44.91,0-.86,0-1.34,0-2.2-.22,17.9-12.78,39.34-28.16,48.22Z"/><path class="cls-15" d="M175.25,973.47l.85-.49.69-.4.36-.21Z"/><path class="cls-15" d="M176.79,972.58l-1.95,1.12.41-.23.85-.49Z"/><path class="cls-15" d="M166.45,995.29c5,2.92,11.94,2.59,19.61-1.69,15.61-8.69,28.44-30.41,28.66-48.5l-9.46-5.5c-.22,18.09-13,39.81-28.66,48.51-7.67,4.27-14.59,4.61-19.61,1.69Z"/><path class="cls-15" d="M176.79,972.58c-8.21,4.57-14.76.57-14.65-9s6.87-20.93,15.07-25.5,14.77-.57,14.65,8.94c0-.86,0-1.34,0-2.2.13-10.76-7.29-15.28-16.57-10.11s-16.9,18.08-17,28.83,7.28,15.28,16.56,10.11Z"/><path class="cls-15" d="M148.74,971.1c-.22,18.09,12.25,25.7,27.86,17S205,957.69,205.26,939.6l-3.86,0c-.21,16.85-12.16,37.08-26.7,45.18s-26.15,1-25.94-15.84C148.75,969.75,148.75,970.24,148.74,971.1Z"/><path class="cls-17" d="M166.48,973.46l9.46,5.5c2.64,1.54,6.27,1.36,10.31-.89,8.21-4.57,15-16,15.07-25.5l-9.46-5.5c-.11,9.51-6.86,20.93-15.07,25.51C172.76,974.82,169.12,975,166.48,973.46Z"/><path class="cls-17" d="M197,942.73l-9.46-5.49c2.73,1.58,4.39,5,4.33,9.83l9.46,5.5C201.38,947.73,199.72,944.32,197,942.73Z"/><path class="cls-15" d="M197,920.91c5.19,3,8.35,9.5,8.24,18.69l9.46,5.5c.11-9.19-3.05-15.68-8.24-18.7Z"/><path class="cls-15" d="M187.53,937.24c-2.64-1.54-6.28-1.36-10.32.89-8.2,4.57-15,16-15.07,25.5-.06,4.84,1.61,8.25,4.34,9.83l9.46,5.5c-2.73-1.58-4.4-5-4.34-9.83.12-9.51,6.87-20.93,15.07-25.51,4-2.25,7.68-2.42,10.32-.89Z"/><path class="cls-18" d="M188.63,942.5c-.76.44-1.19.69-2,1.12,8.21-4.57,14.77-.57,14.65,9l3.87,0C205.32,941.85,197.91,937.32,188.63,942.5Z"/><path class="cls-15" d="M175,924l.47-.27c14.54-8.1,26.15-1,26,15.84l3.86,0c.22-18.09-12.25-25.7-27.86-17l-.5.28Z"/><path class="cls-15" d="M188.22,942.73l-1.51.87,1.92-1.1Z"/><path class="cls-15" d="M186.67,943.62l-.36.21,1.91-1.1Z"/><path class="cls-18" d="M171.6,969.13c0,.86,0,1.34,0,2.2-.13,10.75,7.28,15.28,16.56,10.11s16.91-18.08,17-28.83l-3.87,0c-.11,9.51-6.86,20.93-15.07,25.5S171.48,978.64,171.6,969.13Z"/><path class="cls-15" d="M186.31,943.83c-8,4.7-14.59,15.93-14.71,25.3,0,.86,0,1.34,0,2.2.13-10.6,7.54-23.28,16.63-28.6Z"/><path class="cls-19" d="M176.9,922.88,175,924c-14.32,8.27-26,28.24-26.22,44.91,0,.85,0,1.34,0,2.2C149,953.2,161.52,931.76,176.9,922.88Z"/><path class="cls-17" d="M188,992.47c-14.54,8.1-26.16,1-26-15.84s12.16-37.07,26.69-45.17,26.15-1,26,15.84S202.55,984.37,188,992.47Zm17.17-39.86c.13-10.76-7.28-15.29-16.56-10.11s-16.91,18.08-17,28.83,7.28,15.28,16.56,10.11,16.91-18.08,17-28.83Z"/><path class="cls-17" d="M206.48,926.4,197,920.91c-5-2.92-11.94-2.59-19.62,1.69C161.8,931.29,149,953,148.74,971.1c-.11,9.19,3.06,15.68,8.25,18.7l9.46,5.49c-5.19-3-8.36-9.5-8.25-18.69.22-18.09,13.06-39.81,28.66-48.51C194.54,923.82,201.46,923.48,206.48,926.4Z"/><path class="cls-19" d="M186.56,993.32l1.92-1.11-.46.26c-14.54,8.1-26.16,1-26-15.84s12.16-37.07,26.69-45.17,26.15-1,26,15.84c0-.86,0-1.34,0-2.2.22-18.09-12.25-25.7-27.86-17s-28.44,30.42-28.66,48.51,12.25,25.7,27.86,17Z"/></g><polygon class="cls-16" points="187.26 961.83 195.18 956.23 195.93 951.75 191.74 949.12 185.53 950.84 182.14 954.23 187.26 961.83"/><polygon class="cls-17" points="195.93 951.75 185.85 954.75 182.79 951.42 191.74 949.12 195.93 951.75"/><g class="cls-2"><path class="cls-20" d="M180,967.22l-10.81-6.28,7.26-13.17,11.1,6.45a3.77,3.77,0,0,0-3.8.38,11.7,11.7,0,0,0-5.31,9.2A3.75,3.75,0,0,0,180,967.22Z"/><path class="cls-16" d="M183.74,954.6a11.7,11.7,0,0,0-5.31,9.2c0,3.38,2.4,4.75,5.35,3.05a11.72,11.72,0,0,0,5.31-9.21C189.08,954.26,186.69,952.9,183.74,954.6Z"/></g><polygon class="cls-16" points="186.56 955.08 183.76 943.62 180.83 945.96 175.81 953.11 180.93 957.15 184.76 956.39 186.56 955.08"/><path class="cls-16" d="M186.31,963.35l-2,10.92s-2,1.69-2.9,1.57S178,973.7,178,973.7l-1.22-7.21,3.6-3.14Z"/><polygon class="cls-16" points="179.34 966.69 170.02 969.21 169.2 962.34 172.42 956.23 179.34 959.82 180.39 962.72 179.34 966.69"/><g class="cls-2"><path class="cls-17" d="M184.67,957.33a2.27,2.27,0,0,1,2.31-.22l6.15,3.57a2.3,2.3,0,0,0-2.31.23,7.13,7.13,0,0,0-3.23,5.59,2.3,2.3,0,0,0,.95,2.08L182.38,965a2.24,2.24,0,0,1-.94-2.07A7.12,7.12,0,0,1,184.67,957.33Z"/><path class="cls-16" d="M190.82,960.91a7.13,7.13,0,0,0-3.23,5.59c0,2.06,1.46,2.89,3.25,1.85a7.14,7.14,0,0,0,3.24-5.59C194.07,960.7,192.61,959.88,190.82,960.91Z"/></g><polygon class="cls-17" points="180.93 957.15 179.56 946.71 174.93 952.62 180.93 957.15"/><polygon class="cls-17" points="179.34 959.82 169.42 964.14 167.46 960.85 172.42 956.23 179.34 959.82"/><polygon class="cls-17" points="181.44 975.84 180.64 966.27 176.94 967.34 178.01 973.7 179.12 975.55 181.44 975.84"/><path class="cls-17" d="M188,992.47c-14.54,8.1-26.16,1-26-15.84s12.16-37.07,26.69-45.17,26.15-1,26,15.84S202.55,984.37,188,992.47Zm17.17-39.86c.13-10.76-7.28-15.29-16.56-10.11s-16.91,18.08-17,28.83,7.28,15.28,16.56,10.11,16.91-18.08,17-28.83Z"/><path class="cls-21" d="M144,964.63l8.17,5.29a8.65,8.65,0,0,0,8,.74l.92-.37a8.7,8.7,0,0,0,4.86-5.1c5.31-14.6,14.91-28.3,26-32.57L170,921.28C155.73,931.61,146.09,948.11,144,964.63Z"/><path class="cls-22" d="M185.05,929.08c-15.34,9-24.41,25.14-27.85,42.21a8.5,8.5,0,0,0,2.92-.63l.92-.37a8.7,8.7,0,0,0,4.86-5.1c5.31-14.6,14.91-28.3,26-32.57Z"/><path class="cls-23" d="M234,947.72l-40.13,22.82c-3.78,2.18-6.84.89-6.84-2.88s3.06-8.6,6.84-10.78L234,934.05c3.77-2.18,6.83-.88,6.83,2.89S237.72,945.54,234,947.72Z"/><path class="cls-24" d="M197,932.62l-10,35c-1.13,4.71,7.45,8.18,9,1.68L205.87,938Z"/><g class="cls-2"><path class="cls-15" d="M353.94,881.71c-14.53,8.1-26.15,1-25.94-15.84s12.15-37.07,26.69-45.17,26.15-1,25.95,15.84S368.48,873.61,353.94,881.71Zm17.18-39.87c.13-10.75-7.29-15.28-16.57-10.11s-16.9,18.08-17,28.83,7.28,15.29,16.56,10.12,16.9-18.08,17-28.84Z"/><path class="cls-16" d="M354.49,870.44l1.9-1.1c8.05-4.7,14.6-15.93,14.71-25.3,0-.86,0-1.34,0-2.2C371,852.44,363.58,865.12,354.49,870.44Z"/><path class="cls-15" d="M367.72,889.18c14.33-8.27,26-28.24,26.23-44.91v-2.2c-.22,17.9-12.78,39.34-28.16,48.22Z"/><path class="cls-15" d="M354.49,870.44l.84-.49.7-.4.36-.21Z"/><path class="cls-15" d="M356,869.55c-.76.43-1.19.68-1.95,1.13l.41-.24.84-.49Z"/><path class="cls-15" d="M345.69,892.26c5,2.92,11.94,2.59,19.61-1.69,15.61-8.69,28.44-30.41,28.66-48.5l-9.46-5.5c-.22,18.09-13.05,39.81-28.66,48.51-7.67,4.27-14.59,4.61-19.61,1.69Z"/><path class="cls-15" d="M356,869.55c-8.21,4.57-14.76.57-14.65-8.95s6.87-20.93,15.07-25.5,14.77-.57,14.65,8.94c0-.86,0-1.34,0-2.2.13-10.75-7.29-15.28-16.57-10.11s-16.9,18.08-17,28.83,7.28,15.29,16.56,10.12C354.84,870.23,355.27,870,356,869.55Z"/><path class="cls-15" d="M328,868.07c-.22,18.09,12.25,25.7,27.86,17s28.44-30.42,28.66-48.51l-3.86,0c-.21,16.84-12.16,37.07-26.7,45.17s-26.15,1-25.94-15.84C328,866.73,328,867.21,328,868.07Z"/><path class="cls-17" d="M345.72,870.44l9.46,5.49c2.64,1.54,6.27,1.36,10.31-.89,8.21-4.57,15-16,15.07-25.5L371.1,844C371,853.55,364.24,865,356,869.55,352,871.8,348.36,872,345.72,870.44Z"/><path class="cls-17" d="M376.23,839.71l-9.46-5.5c2.73,1.58,4.39,5,4.33,9.83l9.46,5.5C380.62,844.7,379,841.29,376.23,839.71Z"/><path class="cls-15" d="M376.26,817.88c5.19,3,8.35,9.5,8.24,18.69l9.46,5.5c.11-9.19-3-15.68-8.24-18.7Z"/><path class="cls-15" d="M366.77,834.21c-2.64-1.54-6.28-1.36-10.32.89-8.2,4.57-14.95,16-15.07,25.5-.06,4.84,1.61,8.25,4.34,9.84l9.46,5.49c-2.73-1.58-4.4-5-4.34-9.83.12-9.51,6.87-20.93,15.07-25.51,4-2.24,7.68-2.42,10.32-.88Z"/><path class="cls-18" d="M367.87,839.47l-2,1.12c8.21-4.57,14.77-.56,14.65,8.95l3.87,0C384.56,838.82,377.15,834.3,367.87,839.47Z"/><path class="cls-15" d="M354.22,821l.47-.26c14.54-8.1,26.15-1,25.95,15.84l3.86,0c.22-18.09-12.25-25.7-27.86-17l-.5.28Z"/><path class="cls-15" d="M367.46,839.7l-1.51.87,1.92-1.1Z"/><path class="cls-15" d="M365.91,840.59l-.36.21c.75-.42,1.17-.67,1.91-1.1Z"/><path class="cls-18" d="M350.84,866.1c0,.86,0,1.34,0,2.2-.13,10.76,7.28,15.28,16.56,10.11s16.91-18.08,17-28.83l-3.87,0c-.11,9.51-6.86,20.93-15.07,25.5S350.72,875.61,350.84,866.1Z"/><path class="cls-15" d="M365.55,840.8c-8,4.7-14.59,15.93-14.71,25.3,0,.86,0,1.34,0,2.2.13-10.6,7.54-23.28,16.63-28.6C366.72,840.13,366.3,840.38,365.55,840.8Z"/><path class="cls-19" d="M356.14,819.85,354.22,821c-14.32,8.27-26,28.24-26.22,44.91,0,.86,0,1.34,0,2.2C328.2,850.17,340.76,828.73,356.14,819.85Z"/><path class="cls-17" d="M367.25,889.45c-14.53,8.1-26.15,1-25.94-15.84s12.16-37.08,26.69-45.18,26.15-1,25.95,15.84S381.79,881.35,367.25,889.45Zm17.18-39.87c.13-10.76-7.28-15.28-16.56-10.11s-16.91,18.08-17,28.83,7.28,15.28,16.56,10.11,16.91-18.08,17-28.83Z"/><path class="cls-17" d="M385.72,823.37l-9.46-5.49c-5-2.92-11.94-2.59-19.62,1.69C341,828.26,328.21,850,328,868.07c-.11,9.19,3.06,15.68,8.25,18.7l9.46,5.49c-5.19-3-8.36-9.5-8.25-18.69.22-18.09,13.06-39.81,28.66-48.51C373.78,820.79,380.7,820.46,385.72,823.37Z"/><path class="cls-19" d="M365.8,890.29l1.92-1.11-.47.27c-14.53,8.1-26.15,1-25.94-15.84s12.16-37.08,26.69-45.18,26.15-1,25.95,15.84v-2.2c.22-18.09-12.25-25.7-27.86-17s-28.44,30.42-28.66,48.51,12.25,25.7,27.86,17C365.47,890.48,365.64,890.39,365.8,890.29Z"/></g><polygon class="cls-16" points="366.5 858.81 374.42 853.2 375.17 848.72 370.98 846.09 364.76 847.81 361.38 851.2 366.5 858.81"/><polygon class="cls-17" points="375.17 848.72 365.09 851.72 362.03 848.39 370.98 846.09 375.17 848.72"/><g class="cls-2"><path class="cls-20" d="M359.23,864.19l-10.81-6.28,7.26-13.17,11.1,6.45a3.77,3.77,0,0,0-3.8.38,11.72,11.72,0,0,0-5.31,9.2A3.75,3.75,0,0,0,359.23,864.19Z"/><path class="cls-16" d="M363,851.57a11.72,11.72,0,0,0-5.31,9.2c0,3.38,2.4,4.75,5.35,3.05a11.72,11.72,0,0,0,5.31-9.21C368.32,851.23,365.93,849.87,363,851.57Z"/></g><polygon class="cls-16" points="365.8 852.05 363 840.59 360.07 842.93 355.06 850.09 360.17 854.12 364 853.36 365.8 852.05"/><path class="cls-16" d="M365.55,860.32l-2,10.92s-2,1.69-2.9,1.57-3.43-2.13-3.43-2.13L356,863.46l3.6-3.14Z"/><polygon class="cls-16" points="358.58 863.66 349.26 866.18 348.44 859.31 351.66 853.2 358.58 856.79 359.63 859.69 358.58 863.66"/><g class="cls-2"><path class="cls-17" d="M363.91,854.3a2.27,2.27,0,0,1,2.31-.22l6.15,3.57a2.3,2.3,0,0,0-2.31.23,7.13,7.13,0,0,0-3.23,5.59,2.26,2.26,0,0,0,.95,2.08L361.62,862a2.24,2.24,0,0,1-.94-2.07A7.12,7.12,0,0,1,363.91,854.3Z"/><path class="cls-16" d="M370.06,857.88a7.13,7.13,0,0,0-3.23,5.59c0,2.06,1.46,2.89,3.25,1.86a7.16,7.16,0,0,0,3.24-5.6C373.31,857.67,371.85,856.85,370.06,857.88Z"/></g><polygon class="cls-17" points="360.17 854.12 358.8 843.68 354.17 849.59 360.17 854.12"/><polygon class="cls-17" points="358.58 856.79 348.66 861.11 346.69 857.82 351.66 853.2 358.58 856.79"/><polygon class="cls-17" points="360.68 872.81 359.88 863.25 356.18 864.31 357.25 870.67 358.35 872.52 360.68 872.81"/><path class="cls-17" d="M367.25,889.45c-14.53,8.1-26.15,1-25.94-15.84s12.16-37.08,26.69-45.18,26.15-1,25.95,15.84S381.79,881.35,367.25,889.45Zm17.18-39.87c.13-10.76-7.28-15.28-16.56-10.11s-16.91,18.08-17,28.83,7.28,15.28,16.56,10.11,16.91-18.08,17-28.83Z"/><path class="cls-24" d="M351.23,842.68,368.47,866c3,4.28,9-.31,5.24-5.47L354.3,833.87Z"/><path class="cls-23" d="M337.08,824.26l20.61,27.87c3.59,5.11,10.75-.37,6.26-6.54l-23.2-31.87Z"/><path class="cls-21" d="M347,852.48c8.47-17.35,23-29.39,36.09-28.7a6.06,6.06,0,0,0,6-3.78l.06-.15s-12.91-10.21-20.57-9.68-17.77,3.55-22.88,12.35C342.68,827.75,347,852.48,347,852.48Z"/><path class="cls-22" d="M345.82,843.68c.69,6.18,1.16,8.8,1.16,8.8,8.47-17.35,22.88-26.9,35.94-26.21,2.64.14,5.23-3.81,6.19-6.27l.06-.15-.21-.15C371.13,816.2,354.14,826,345.82,843.68Z"/><path class="cls-22" d="M339.56,787.37l5.28-3.67a3.53,3.53,0,0,0,1.36-1.86c.82-2.56,2-8.69-2.6-13.61a107.93,107.93,0,0,0-13.73-8.74s-2.8-2.18-6.92,1.59S339.56,787.37,339.56,787.37Z"/><path class="cls-17" d="M254.78,747.88c-2.74-.65-3.5,5.33-1.06,5.77,0,0,11.89,2.2,13.45,1.93s3.39-1.08,1.67-2.91S257.42,748.1,254.78,747.88Z"/><path class="cls-25" d="M248.83,762a36.72,36.72,0,0,1,9.58-.77c1,0,1.83.72,2.75,1.13a5.82,5.82,0,0,0,4.13,0,17.05,17.05,0,0,0,3.73-2,8.31,8.31,0,0,0,2.59-2.19,6.83,6.83,0,0,0,.87-2.19c.29-1.17,1-2.47.62-3.62-.21-.63-.1-1.32-.26-2a4.41,4.41,0,0,0-.51-1.13,5.46,5.46,0,0,0-1.46-1.77,3.23,3.23,0,0,0-2.15-.36,1.11,1.11,0,0,1-.81-.43,4.35,4.35,0,0,0-.65-.7,2.19,2.19,0,0,0-1.38-.3,8.23,8.23,0,0,0-2.75.46,3.53,3.53,0,0,0-1.61-.68,3.37,3.37,0,0,0-1.29.22c-.5.15-1,.25-1.55.4a2.55,2.55,0,0,0-2.48.58,10.81,10.81,0,0,0-1.68,2.06,16.47,16.47,0,0,1-9.07,6.16C246.66,757.19,247.24,760,248.83,762Z"/><path class="cls-21" d="M215.89,745.53c-20.77-3.6-25.56,14.84-16.31,26.92,3.13,4.09,6.81,0,10.14-.4,5.65-.61,7.65-.22,16.8-1.79l2.5-20.52C224.19,748.11,221,746.42,215.89,745.53Z"/><path class="cls-22" d="M254.24,757.1a5.34,5.34,0,0,0-5.6-3.39c-6.86.23-13.22-1.8-19.62-4l-2.5,20.52c4.69-.8,11.23-2.12,21.1-4.34a14,14,0,0,0,5.71-2.36C255.32,761.88,255.22,759.51,254.24,757.1Z"/><path class="cls-26" d="M275,811.11c.37,3.93-1,11.59-2.11,12.94-1.46,1.77-15.42,7.56-29.3,9.89-.2-9.15-1.81-18.7-1.41-27.81.11-2.55.9-2.26,3.45-3.09C258.85,798.77,273.76,797.37,275,811.11Z"/><path class="cls-22" d="M206,858.43,151.46,886l-9.77,9.54a6.74,6.74,0,0,0-1.77,6.67l1,3.62a6.72,6.72,0,0,0,3,3.94l33.32,19.89,43.76,23.46a24.21,24.21,0,0,0,23.68-.47l88.83-52.29,27.36-89.67a10.06,10.06,0,0,0-2.11-9.64L337,776.56l-12.64-8.33-27-2.59-9.77,24.42-9.19,76.41-6.9,4.31-12.92-23.27Z"/><path class="cls-21" d="M174.29,927.86l6.11-6-7.75-17.45L147.4,890l-5.71,5.57a6.74,6.74,0,0,0-1.77,6.67l1,3.62a6.72,6.72,0,0,0,3,3.94Z"/><polygon class="cls-27" points="151.46 886.01 175.45 899.72 191.6 892.87 167.63 877.84 151.46 886.01"/><path class="cls-17" d="M267.5,872.26a2.37,2.37,0,0,0,1.78.07c1.85-.43,3.65-1.08,5.5-1.5a11.71,11.71,0,0,1,5.64-.11c1.84.51,4.06,2.16,4.16,4.06.15,2.61-1.85,4.86-4,6.31A18.42,18.42,0,0,1,275,883.6c-1.65.43-3.35.64-5,1.16-3.51,1.11-6.67,3.62-10.34,3.81-2,.1-4.29-.12-5.6-1.66a5.42,5.42,0,0,1-1-4.14,42.39,42.39,0,0,1,1-4.27,17.28,17.28,0,0,0,.28-5.78Z"/><path class="cls-21" d="M180.4,921.91l15.41,3.7A28.75,28.75,0,0,0,214.08,924l35.41-15.56a25.49,25.49,0,0,1,25.22,2.69l14.92,10.81,12.5-8.61L284.68,912l-4.74-24.56-21.33-39.93-83.16,52.21-2.8,4.74Z"/><path class="cls-17" d="M161.67,880.85s-3.46-11.94,7.74-17.25,40.22-18.82,40.22-18.82l26.57-10.34,25.57,13.07s5.74.87,5.6,6.75-.58,15.8-11.06,20.54S199,899.72,199,899.72s-6.89,3.52-9.91-1.79l-1.44-3.16-24.27-14.51Z"/><path class="cls-21" d="M330.14,897.78l5.25-3.33,25.55-83.75a10.06,10.06,0,0,0-2.11-9.64L337,776.56l-12.64-8.33v5.46l6.32,4.31,16.66,47.11Z"/><polygon class="cls-28" points="287.93 870.42 322.67 889.98 341.53 821.38 326.31 780.18 302.13 780.54 303.71 802.41 287.93 870.42"/><path class="cls-17" d="M302.4,894.07a2.37,2.37,0,0,0,1.78.07c1.85-.43,3.65-1.08,5.5-1.5a11.71,11.71,0,0,1,5.64-.1c1.84.5,4.06,2.16,4.17,4.06.14,2.6-1.86,4.85-4,6.3a18.42,18.42,0,0,1-5.57,2.51c-1.64.44-3.35.65-5,1.16-3.5,1.11-6.67,3.62-10.34,3.81-2,.11-4.29-.12-5.6-1.65a5.48,5.48,0,0,1-1-4.14,41.78,41.78,0,0,1,1-4.27,17.61,17.61,0,0,0,.29-5.79Z"/><path class="cls-29" d="M304,844.62c-1.11,16.45-1.86,31.83-1.65,48.32,1.26,4.21-11.59,10-15.65,4.13-.12-3.28-.25-6.57-.45-9.84a127.32,127.32,0,0,0-1.88-16.43c-.89-4.68-2.17-9.28-2.87-14s-1-9.93.35-14.44c0,0,0-.09,0-.14a128.64,128.64,0,0,1-15.49,9.45q-2.45,1.3-4.91,2.59c-4,2.11-9.11,2.69-12.79,5.35-6.11,4.4-14.25,5.37-21.63,3.8s-13.69-6.75-20.45-10.08a20.82,20.82,0,0,1-10.31-12.51,22.2,22.2,0,0,1-.89-4c-.87-6.88,1.25-13.93,5-19.73,9.15.81,18.25,3.55,27.37,4.62,5.17.62,10.92.56,16.32,1.11,1.48.14,2.93.33,4.33.6,1.79-.95,3.63-1.81,5.5-2.6q2.21-.93,4.45-1.73a92.77,92.77,0,0,1,32-5.37A19,19,0,0,1,294,814c2.33.48,4.91,1.57,6.22,3.56a23.08,23.08,0,0,1,1.63,3,31,31,0,0,1,2.5,10.18A92.33,92.33,0,0,1,304,844.62Z"/><path class="cls-30" d="M301.81,820.53c-9,.62-18.08,2.22-26.21,6.15-5.73,2.77-10.89,6.64-16.72,9.22-6.5,2.89-22.17,11.28-21.49,1.34.19-2.79,6.27-11.6,6.76-14.41,1.48.14,4.3-23,5.71-22.75,11-5.81,24.85,13.5,40.57,13.65A19,19,0,0,1,294,814c2.33.48,4.91,1.57,6.22,3.56A23.08,23.08,0,0,1,301.81,820.53Z"/><path class="cls-21" d="M273.55,745.66l4.13-1.85,14.69-2.62a6.75,6.75,0,0,1,2.83.11l15.42,3.89A6.74,6.74,0,0,1,313.8,747l8,8.26a6.76,6.76,0,0,1,1.6,2.7L328,772.68l-1.58,12.5-11.91-7.9L276.71,756Z"/><path class="cls-25" d="M243.1,760.55,246,742.28l-17.78-8.08-5.32,15.57C227.78,752.29,239.54,756.66,243.1,760.55Z"/><path class="cls-21" d="M258.89,786.32a52.77,52.77,0,0,1-2.2,9.74c-.38,1.27-.77,2.53-1.13,3.8a101.35,101.35,0,0,0-3.49,18.84,101.14,101.14,0,0,1-1.24,11.52c-.78,3.78-2,7.5-4.86,10.13-2.05,1.88-5.21,1.64-8,1.22-1.08-.17-2.16-.35-3.24-.55-14-2.54-28-7.52-38.12-17.46-2.93-2.88.31-9.82,1.21-13a30.32,30.32,0,0,0,.94-7c1-20.94-3.64-33.73,1-47.47,5.58-16.61,19.79-11.41,34.95-2.63,7.5,4.34,18.49,10.29,23,16.85C260.92,774.89,259.44,780.81,258.89,786.32Z"/><path class="cls-28" d="M243.88,781.44a197.28,197.28,0,0,1-3,40.74A51.73,51.73,0,0,1,237.34,834c-.89,2-2.44,4.64-2.57,7,1.08.2,2.16.38,3.24.55,2.75.42,5.91.66,8-1.22,2.84-2.63,4.08-6.35,4.86-10.13a101.14,101.14,0,0,0,1.24-11.52,101.35,101.35,0,0,1,3.49-18.84c.36-1.27.75-2.53,1.13-3.8A70.54,70.54,0,0,1,243.88,781.44Z"/><path class="cls-28" d="M273.55,745.66,272,760.19l3.13,4.31,19,5.6,7.9,4.16,17.23,14.68,3.31-2.61,1.87-10.92-6-15.63a7.86,7.86,0,0,0-3.43-4l-20.69-11.85A7.87,7.87,0,0,0,289,743Z"/><path class="cls-21" d="M290.24,776.7l3.27,2.13A10.29,10.29,0,0,0,308,775.58a14.18,14.18,0,0,0,.76-1.51c3.25-7.56,2.14-14.93-5.13-19.94S290.24,776.7,290.24,776.7Z"/><path class="cls-28" d="M308.76,765.53c-.41,7.3-6,13.22-12.4,13.22s-11.32-5.92-10.91-13.22,6-13.22,12.4-13.22S309.18,758.23,308.76,765.53Z"/><path class="cls-23" d="M307,765.53c-.34,6.17-5,11.17-10.48,11.17s-9.56-5-9.21-11.17,5-11.17,10.48-11.17S307.3,759.36,307,765.53Z"/><path class="cls-18" d="M306.13,765.53c.32-5.65-3.46-10.23-8.44-10.23a9.41,9.41,0,0,0-7.78,4.58l15.41,9.31A11.68,11.68,0,0,0,306.13,765.53Z"/><path class="cls-17" d="M318.42,784.38a36.75,36.75,0,0,1-3.39-7.14c-.93-2.59.09-3.14,2.22-1.58a21.54,21.54,0,0,1,5.71,6.28Z"/><path class="cls-25" d="M305.33,790.86l6-5.14a12.76,12.76,0,0,1,1.6-1.25,14.06,14.06,0,0,1,2.39-1.12l5.73-2.23a14.77,14.77,0,0,1,4-1.13,2.2,2.2,0,0,1,1.3.19,6.28,6.28,0,0,1,.93.86c.81.7,2.08.75,2.78,1.55.42.49.56,1.17,1,1.68s1.39,1,1.77,1.68.12,1.69.15,2.55c0,.59.19,1.16.19,1.74a5.45,5.45,0,0,1-.54,2.12c-.93,2.18-2.45,4.35-4.74,5a2.27,2.27,0,0,1-2.85.16c-.85-.55-1.48-1.39-2.33-1.94a1.15,1.15,0,0,0-.62-.23,1.44,1.44,0,0,0-.63.19,14,14,0,0,1-9.63.88,5.07,5.07,0,0,1-2.44,1l-2.8-4.79A10.1,10.1,0,0,0,305.33,790.86Z"/><path class="cls-21" d="M309.93,787.39a8,8,0,0,1,3.76,4c.71,1.74,1.31,4.11.14,5.58a31.5,31.5,0,0,1-6.11,5.4c-8.85,6.57-16.5,12.53-25.1,13.91-3.38.54-6.77-.8-9.88-2.23-10.85-5-18.72-12.79-27.26-21.13-9.82-9.58-2.14-25.25,6.13-26.06,5.14-.5,9.65,7.41,13,11.31,1.33,1.54,3,4.42,4.44,5.84L284.44,799A202.3,202.3,0,0,1,309.93,787.39Z"/><path class="cls-17" d="M323,794.51s1.65,5.2,5.24,3.41.28-5.78.28-5.78C327.48,790.31,322.63,792.68,323,794.51Z"/><path class="cls-17" d="M269.6,751.77c-2.75-.65-3.51,5.33-1.07,5.77,0,0,11.89,2.2,13.45,1.93s3.4-1.08,1.67-2.91S272.23,752,269.6,751.77Z"/><path class="cls-30" d="M286.26,887.23a127.32,127.32,0,0,0-1.88-16.43c-.89-4.68-2.17-9.28-2.87-14s-1-9.93.35-14.44c2.24-2.69,6.22-5.12,9.06-6.75C286.3,853.39,286.85,888.33,286.26,887.23Z"/><path class="cls-30" d="M266.41,851.68q-2.45,1.3-4.91,2.59c-4,2.11-9.11,2.69-12.79,5.35-6.11,4.4-14.25,5.37-21.63,3.8s-13.69-6.75-20.45-10.08a20.82,20.82,0,0,1-10.31-12.51,5.53,5.53,0,0,1,2.87,1.13c4.18,2.93,7.56,6.63,12.07,9.23a44.06,44.06,0,0,0,23.84,6.17C245.69,856.84,256,851.81,266.41,851.68Z"/><path class="cls-25" d="M242.51,747.91l8.07-1.86a5.7,5.7,0,0,0,4-3.38c1.86-4.48,3.45-14.18,2.71-21.22-1.14-10.84-13-13.77-20.14-11.86s-13.77,7.27-14.28,16.57S229.12,743,229.12,743Z"/><path class="cls-17" d="M257.49,725a17.75,17.75,0,0,1-6.15,6,3.64,3.64,0,0,0-1.63,2.24l-.87,3.36-3.4,3-.59,2c-.55,1.87-2.74,5.39-4.68,5.56-3,.25-11.27-2.51-14.93-7,0,0-7.24-11-1-22.15,6.4-11.52,19.2-10.18,23.41-8.87S262.36,716.47,257.49,725Z"/><path class="cls-22" d="M236.49,715.1c8.94-5.17,23.37-6.9,30.6-1.4,9.14,6.94-1.67,11.73-9.71,13.6a2.38,2.38,0,0,0-.59.31C248.16,711.89,233.56,716.79,236.49,715.1Z"/><path class="cls-21" d="M257.38,727.3s3.24-16-9.47-20.21c-25.9-8.62-26.22,19.16-26.22,19.16C221.18,733.43,238.82,740.21,257.38,727.3Z"/><path class="cls-25" d="M244.45,740.44c.93,2,3.63,1.18,4.27-1.42.34-1.39,1-3.6.21-4.58C247.2,732.19,241.92,735,244.45,740.44Z"/><path class="cls-17" d="M121.48,904l1.7,6.42a8.92,8.92,0,0,0,4.4,5.57l17.57,9.4a8.68,8.68,0,0,0,4,1.05l11.61.24-10.3-5.94v-3.86l-28-16Z"/><g class="cls-2"><polygon class="cls-31" points="226.59 839.74 226.43 895.62 167.52 929.86 167.68 873.97 226.59 839.74"/><polygon class="cls-32" points="167.68 873.97 167.52 929.86 108.22 895.62 108.38 839.74 167.68 873.97"/><polygon class="cls-33" points="226.59 839.74 167.68 873.97 108.38 839.74 167.29 805.5 226.59 839.74"/></g><polygon class="cls-34" points="189.96 861.36 130.15 826.97 144.98 818.41 204.39 852.95 189.96 861.36"/><polygon class="cls-33" points="204.39 852.95 204.39 875.8 190.56 884.52 189.96 861.36 204.39 852.95"/><polyline class="cls-35" points="123.5 905 123.5 849 181.51 813.82"/><polyline class="cls-35" points="151.5 921 150.5 865 208.51 829.82"/><polyline class="cls-35" points="139.64 821.22 199.5 857 199.5 912"/><g class="cls-2"><polygon class="cls-6" points="939.69 635.1 939.41 732.76 848.58 785.54 848.85 687.88 939.69 635.1"/><polygon class="cls-5" points="848.85 687.88 848.58 785.54 719.5 711.02 719.78 613.37 848.85 687.88"/><polygon class="cls-36" points="939.69 635.1 848.85 687.88 719.78 613.37 810.62 560.58 939.69 635.1"/></g><g class="cls-2"><polygon class="cls-9" points="945.62 622.11 945.56 642.37 849.74 698.05 849.8 677.8 945.62 622.11"/><polygon class="cls-5" points="849.8 677.8 849.74 698.05 713.58 619.44 713.63 599.18 849.8 677.8"/><polygon class="cls-6" points="945.62 622.11 849.8 677.8 713.63 599.18 809.45 543.5 945.62 622.11"/><polygon class="cls-9" points="934.5 622.11 849.8 671.34 725.1 599.35 809.81 550.12 934.5 622.11"/><polygon class="cls-5" points="809.81 554.97 930.32 624.55 934.5 622.11 809.81 550.12 725.1 599.35 729.29 601.76 809.81 554.97"/></g><polygon class="cls-6" points="815.29 714.55 815.15 762.4 749.75 724.63 749.88 676.79 815.29 714.55"/><polygon class="cls-9" points="815.29 714.55 815.15 760.48 751.28 723.6 751.41 677.68 815.29 714.55"/><polygon class="cls-5" points="815.15 762.4 815.14 766.25 746.82 726.8 746.97 675.1 749.88 676.78 749.88 676.79 749.75 724.63 815.15 762.4"/><polygon class="cls-9" points="839.81 728.5 839.77 765.53 824.16 756.51 824.19 719.49 839.81 728.5"/><polygon class="cls-6" points="825.38 755.73 825.42 720.2 824.19 719.49 824.16 756.51 839.77 765.53 839.77 764.04 825.38 755.73"/><polygon class="cls-9" points="743.63 673.88 743.6 710.9 727.98 701.89 728.01 664.87 743.63 673.88"/><polygon class="cls-6" points="729.21 701.11 729.24 665.57 728.01 664.87 727.98 701.89 743.6 710.9 743.6 709.42 729.21 701.11"/><polygon class="cls-9" points="860.13 723.96 860.17 767.84 878.69 757.15 878.65 713.27 860.13 723.96"/><polygon class="cls-5" points="877.23 756.24 877.19 714.11 878.65 713.27 878.69 757.15 860.17 767.84 860.17 766.08 877.23 756.24"/><polygon class="cls-9" points="888.4 707.41 888.44 751.29 906.95 740.61 906.91 696.72 888.4 707.41"/><polygon class="cls-5" points="905.5 739.68 905.46 697.56 906.91 696.72 906.95 740.61 888.44 751.29 888.44 749.53 905.5 739.68"/><polygon class="cls-9" points="916.67 690.86 916.71 734.74 935.22 724.05 935.18 680.17 916.67 690.86"/><polygon class="cls-5" points="933.76 723.13 933.73 681.01 935.18 680.17 935.22 724.05 916.71 734.74 916.71 732.98 933.76 723.13"/><polygon class="cls-6" points="782.71 742.9 781.69 742.9 781.69 695.15 782.71 695.75 782.71 742.9"/><polygon class="cls-5" points="1604.56 313.16 1563.03 288.63 1563.03 234.04 1604.56 256.14 1604.56 313.16"/><polygon class="cls-5" points="1604.56 313.16 1563.03 288.63 1563.03 283.7 1604.56 308.26 1604.56 313.16"/><polygon class="cls-37" points="1638.63 293.63 1597.1 269.1 1597.1 217.47 1638.63 239.58 1638.63 293.63"/><polygon class="cls-38" points="1604.56 313.16 1638.63 293.63 1638.63 239.58 1604.56 256.14 1604.56 313.16"/><polygon class="cls-39" points="1604.56 313.16 1638.63 293.63 1638.63 288.73 1604.56 308.26 1604.56 313.16"/><polygon class="cls-40" points="1600.04 210.71 1557.83 234.99 1604.12 262.13 1646.53 237.64 1600.04 210.71"/><polygon class="cls-5" points="1604.57 266.69 1557.83 239.71 1557.83 234.99 1604.57 261.97 1604.57 266.69"/><polygon class="cls-39" points="1604.56 266.69 1646.53 242.36 1646.53 237.64 1604.56 261.97 1604.56 266.69"/><polygon class="cls-5" points="1557.83 234.98 1604.57 261.99 1604.57 205.5 1557.83 234.98"/><polygon class="cls-6" points="1604.57 261.99 1646.53 237.64 1604.57 205.5 1604.57 261.99"/><polygon class="cls-9" points="1598.02 308.04 1567.92 289.85 1567.92 251.95 1598.02 269.33 1598.02 308.04"/><polygon class="cls-5" points="1598.02 274.39 1567.92 257.01 1567.92 255.69 1598.02 273.07 1598.02 274.39"/><polygon class="cls-5" points="1570.71 291.46 1570.71 253.56 1571.87 254.23 1571.87 292.13 1570.71 291.46"/><polygon class="cls-5" points="1576.53 295.41 1576.53 256.93 1577.68 257.59 1577.68 296.08 1576.53 295.41"/><polygon class="cls-5" points="1582.35 299.37 1582.35 260.29 1583.5 260.95 1583.5 300.03 1582.35 299.37"/><polygon class="cls-5" points="1588.17 302.73 1588.17 263.64 1589.32 264.31 1589.32 303.39 1588.17 302.73"/><polygon class="cls-5" points="1598.02 303.31 1567.92 285.93 1567.92 284.61 1598.02 301.99 1598.02 303.31"/><polygon class="cls-5" points="1598.02 288.85 1567.92 271.47 1567.92 270.15 1598.02 287.53 1598.02 288.85"/><polygon class="cls-5" points="1566.6 290.69 1568 289.89 1568 252 1566.6 251.19 1566.6 290.69"/><polygon class="cls-5" points="1598.3 309.47 1598.3 307.87 1568 289.89 1566.6 290.69 1598.3 309.47"/><polygon class="cls-5" points="1663.74 359.56 1594.14 319.32 1595.38 261.79 1663.74 298.83 1663.74 359.56"/><polygon class="cls-6" points="1662.56 358.97 1730.92 319.5 1730.92 261.19 1662.56 298.24 1662.56 358.97"/><polygon class="cls-5" points="1662.56 358.97 1594.19 319.5 1594.19 314.37 1662.56 354.08 1662.56 358.97"/><polygon class="cls-5" points="1662.56 358.97 1730.92 319.88 1730.92 314.98 1662.56 354.08 1662.56 358.97"/><polygon class="cls-5" points="1662.56 307.11 1591.22 265.88 1591.22 261.16 1662.56 302.39 1662.56 307.11"/><polygon class="cls-5" points="1662.56 307.11 1733.89 265.88 1733.89 261.16 1662.56 302.39 1662.56 307.11"/><polygon class="cls-5" points="1687.86 325.45 1671.59 334.89 1671.59 312.6 1687.86 303.1 1687.86 325.45"/><polygon class="cls-5" points="1686.12 305.82 1686.12 324.38 1672.82 332.1 1672.82 332.59 1686.62 324.58 1686.62 305.53 1686.12 305.82"/><polygon class="cls-6" points="1686.12 305.82 1672.82 313.54 1672.82 332.1 1686.12 324.38 1686.12 305.82"/><rect class="cls-5" x="1681.64" y="307.43" width="0.82" height="20.75"/><rect class="cls-5" x="1676.79" y="310.27" width="0.82" height="20.75"/><polygon class="cls-5" points="1687.13 315.32 1672.02 324.02 1672.02 322.91 1687.13 314.2 1687.13 315.32"/><polygon class="cls-5" points="1724.33 305.3 1708.06 314.74 1708.06 292.44 1724.33 282.94 1724.33 305.3"/><polygon class="cls-5" points="1722.6 285.67 1722.6 304.22 1709.3 311.94 1709.3 312.44 1723.1 304.43 1723.1 285.38 1722.6 285.67"/><polygon class="cls-6" points="1722.6 285.67 1709.3 293.39 1709.3 311.94 1722.6 304.22 1722.6 285.67"/><rect class="cls-5" x="1718.11" y="287.28" width="0.82" height="20.75"/><rect class="cls-5" x="1713.26" y="290.12" width="0.82" height="20.75"/><polygon class="cls-5" points="1723.61 295.17 1708.5 303.87 1708.5 302.76 1723.61 294.05 1723.61 295.17"/><polygon class="cls-5" points="1626.98 320.83 1654.36 336.49 1654.36 313.91 1626.98 298.18 1626.98 320.83"/><polygon class="cls-5" points="1629.04 300.99 1629.04 319.79 1653.12 333.66 1653.12 334.16 1628.54 319.99 1628.54 300.7 1629.04 300.99"/><polygon class="cls-9" points="1629.04 300.99 1653.12 314.87 1653.12 333.66 1629.04 319.79 1629.04 300.99"/><rect class="cls-5" x="1648.48" y="311.57" width="0.83" height="21.01" transform="translate(3297.79 644.16) rotate(-180)"/><rect class="cls-5" x="1643.4" y="308.6" width="0.83" height="21.01" transform="translate(3287.62 638.22) rotate(-180)"/><rect class="cls-5" x="1638.31" y="305.57" width="0.83" height="21.01" transform="translate(3277.46 632.15) rotate(-180)"/><rect class="cls-5" x="1633.23" y="302.6" width="0.83" height="21.01" transform="translate(3267.29 626.21) rotate(-180)"/><polygon class="cls-5" points="1627.9 309.36 1627.9 310.49 1653.63 325.38 1653.63 324.25 1627.9 309.36"/><polygon class="cls-5" points="1596.54 298.88 1601.35 301.66 1601.35 286.55 1596.54 283.77 1596.54 298.88"/><polygon class="cls-9" points="1597.48 298.21 1600.41 299.9 1600.41 287.28 1597.48 285.59 1597.48 298.21"/><path class="cls-5" d="M1605.94,292a8.42,8.42,0,0,1,1.74-5.69,5.67,5.67,0,0,1,4.42.8c4.5,2.6,8.14,9.56,8.14,15.56v24.45l-14.3-8.14Z"/><path class="cls-9" d="M1607.68,286.27a8.42,8.42,0,0,0-1.74,5.69v27l14.3,8.14v2.4L1604,320.21v-27C1604,289.41,1605.44,286.91,1607.68,286.27Z"/><path class="cls-5" d="M1611.25,291.59a3.31,3.31,0,0,0-1,2.6v10.24l6.22,3.59v.77l-6.92-4V294.55C1609.6,292.89,1610.26,291.83,1611.25,291.59Z"/><path class="cls-9" d="M1610.3,294.19a3.31,3.31,0,0,1,1-2.6,2.44,2.44,0,0,1,1.81.34h0c1.9,1.1,3.46,4.08,3.46,6.62V308l-6.22-3.59Z"/><rect class="cls-5" x="1614.11" y="292.69" width="0.61" height="15.58" transform="translate(3228.83 600.96) rotate(-180)"/><rect class="cls-5" x="1611.35" y="291.05" width="0.61" height="15.58" transform="translate(3223.32 597.68) rotate(-180)"/><polygon class="cls-5" points="1608.54 296.75 1617.64 302.01 1617.64 302.85 1608.54 297.58 1608.54 296.75"/><polygon class="cls-6" points="1662.56 302.39 1733.89 261.16 1662.56 216.17 1662.56 302.39"/><g class="cls-2"><polygon class="cls-6" points="1708.06 246.05 1708 271.2 1696.74 277.76 1696.8 252.6 1708.06 246.05"/><polygon class="cls-5" points="1696.8 252.6 1696.74 277.76 1685.41 257.65 1685.47 246.05 1696.8 252.6"/><polygon class="cls-40" points="1708.06 246.05 1696.8 252.6 1685.47 246.05 1696.73 239.51 1708.06 246.05"/></g><g class="cls-2"><polygon class="cls-6" points="1710.39 242.36 1710.32 246.31 1696.75 254.2 1696.82 250.25 1710.39 242.36"/><polygon class="cls-6" points="1696.82 250.25 1696.75 254.2 1683.08 246.31 1683.15 242.37 1696.82 250.25"/><polygon class="cls-9" points="1710.39 242.36 1696.82 250.25 1683.15 242.37 1696.73 234.47 1710.39 242.36"/></g><polygon class="cls-5" points="1591.22 261.16 1662.56 302.39 1662.56 216.17 1591.22 261.16"/><polygon class="cls-5" points="1610.04 338.74 1590.07 327.26 1598.13 322.6 1618.1 334.09 1610.04 338.74"/><polygon class="cls-5" points="1590.07 327.26 1590.07 329.8 1610.04 341.28 1610.04 338.74 1590.07 327.26"/><polygon class="cls-5" points="1613.74 334.09 1593.77 322.6 1601.83 317.95 1603.76 319.05 1605.89 318.15 1620.19 326.3 1620.28 328.55 1621.81 329.43 1613.74 334.09"/><polygon class="cls-5" points="1613.74 334.09 1613.74 336.6 1610.04 338.74 1610.04 341.26 1621.81 334.6 1621.81 329.43 1613.74 334.09"/><polygon class="cls-5" points="1593.77 322.6 1593.77 325.14 1613.74 336.63 1613.74 334.09 1593.77 322.6"/><g class="cls-2"><path class="cls-22" d="M1516.4,244.34l13.37,7.76c5.84,3.4,9.46,10.62,9.49,20.89.06,20.66-14.47,45.82-32.45,56.2l-13.36-7.76c18-10.39,32.51-35.55,32.45-56.21C1525.87,255,1522.25,247.73,1516.4,244.34Z"/><path class="cls-22" d="M1483.65,331.46l-13.37-7.77c5.92,3.44,14.12,3,23.17-2.26l13.36,7.76C1497.77,334.41,1489.57,334.9,1483.65,331.46Z"/><polygon class="cls-22" points="1507.56 407.78 1494.2 400.02 1446.24 340.59 1459.6 348.35 1507.56 407.78"/><path class="cls-22" d="M1530.62,221.29l13.37,7.76c-9.57-5.56-22.82-4.77-37.45,3.67L1493.18,225C1507.8,216.51,1521.06,215.73,1530.62,221.29Z"/><path class="cls-22" d="M1460.28,348.35l-13.37-7.76c-3.92-6.2-6.16-14.55-6.19-24.78-.09-33.4,23.39-74.07,52.46-90.85l13.36,7.76c-29.06,16.78-52.55,57.46-52.46,90.86C1454.11,333.8,1456.35,342.16,1460.28,348.35Z"/><path class="cls-21" d="M1505.86,232.72c29.07-16.78,52.71-3.31,52.8,30.09,0,10.64-2.33,22-6.5,33.12-.57,1.51-1.17,3-1.8,4.51l-42.8,107.34-48-59.43c-3.92-6.19-6.16-14.55-6.19-24.77C1453.31,290.18,1476.8,249.5,1505.86,232.72Zm.28,96.47c18-10.38,32.51-35.54,32.45-56.2s-14.68-29-32.67-18.62-32.5,35.55-32.44,56.21,14.68,29,32.66,18.61"/></g><g class="cls-2"><path class="cls-4" d="M742.63,249.61l10.35,6c-4-2.32-9.51-2-15.61,1.52l-10.34-6C733.13,247.62,738.65,247.29,742.63,249.61Z"/><path class="cls-4" d="M328,591l-10.34-6c-3.94-2.29-6.38-7.15-6.4-14.06l10.34,6C321.66,583.87,324.1,588.73,328,591Z"/><polygon class="cls-4" points="321.64 576.96 311.3 570.95 311.15 516.48 321.49 522.49 321.64 576.96"/><polygon class="cls-4" points="343.35 484.64 333 478.63 727.03 251.13 737.37 257.14 343.35 484.64"/><path class="cls-4" d="M321.49,522.49l-10.34-6c0-13.91,9.74-30.86,21.85-37.85l10.35,6C331.23,491.63,321.45,508.58,321.49,522.49Z"/><path class="cls-5" d="M737.37,257.14c12.11-7,22-1.37,22,12.54l.16,54.46c0,13.92-9.75,30.87-21.86,37.86l-394,227.49c-12.11,7-22,1.38-22-12.53l-.15-54.47c0-13.91,9.74-30.86,21.86-37.85Z"/></g><g class="cls-2"><path class="cls-4" d="M742.3,130.79l10.34,6c-4-2.31-9.51-2-15.6,1.53l-10.35-6C732.79,128.8,738.31,128.48,742.3,130.79Z"/><path class="cls-4" d="M327.7,472.21l-10.34-6c-3.94-2.29-6.38-7.15-6.4-14.07l10.35,6C321.33,465.06,323.77,469.92,327.7,472.21Z"/><polygon class="cls-4" points="321.31 458.14 310.96 452.13 310.81 397.67 321.15 403.68 321.31 458.14"/><polygon class="cls-4" points="343.01 365.82 332.67 359.81 726.69 132.32 737.04 138.33 343.01 365.82"/><path class="cls-4" d="M321.15,403.68l-10.34-6c0-13.92,9.75-30.87,21.86-37.86l10.34,6C330.9,372.81,321.11,389.76,321.15,403.68Z"/><path class="cls-5" d="M737,138.33c12.11-7,22-1.38,22,12.54l.15,54.46c0,13.92-9.75,30.87-21.86,37.86l-394,227.49c-12.11,7-22,1.38-22-12.54l-.16-54.46c0-13.92,9.75-30.87,21.86-37.86Z"/></g><g class="cls-2"><path class="cls-4" d="M742,12l10.34,6c-4-2.32-9.51-2-15.6,1.53l-10.34-6C732.45,10,738,9.66,742,12Z"/><path class="cls-4" d="M327.37,353.4l-10.35-6c-3.93-2.29-6.37-7.16-6.39-14.07l10.34,6C321,346.24,323.43,351.11,327.37,353.4Z"/><polygon class="cls-4" points="320.97 339.33 310.63 333.32 310.47 278.86 320.81 284.87 320.97 339.33"/><polygon class="cls-4" points="342.67 247.01 332.33 241 726.36 13.51 736.7 19.52 342.67 247.01"/><path class="cls-4" d="M320.81,284.87l-10.34-6c0-13.92,9.75-30.87,21.86-37.86l10.34,6C330.56,254,320.78,271,320.81,284.87Z"/><path class="cls-5" d="M736.7,19.52c12.11-7,22-1.38,22,12.53l.15,54.46c0,13.92-9.74,30.87-21.85,37.87L343,351.87c-12.11,7-22,1.38-22-12.54l-.16-54.46c0-13.92,9.75-30.87,21.86-37.86Z"/></g><path class="cls-6" d="M633.61,170.57,528,231.56c-3.74,2.16-6.78-.14-6.78-5.13v-43.6c0-5,3-10.8,6.78-13l105.63-61c3.75-2.17,6.79.13,6.79,5.12v43.6C640.4,162.61,637.36,168.41,633.61,170.57Z"/><path class="cls-6" d="M728.24,115.94l-74,42.7c-4.18,2.41-7.56-.15-7.56-5.72V111.41c0-5.57,3.38-12,7.56-14.46l74-42.69c4.18-2.42,7.56.14,7.56,5.72v41.51C735.8,107.06,732.42,113.53,728.24,115.94Z"/><text class="cls-41" transform="matrix(0.9, -0.52, 0, 1, 342.94, 321.63)">Distance</text><path class="cls-6" d="M633.51,283.4,528.09,344.27c-3.81,2.2-6.89-.13-6.89-5.2V295.74c0-5.07,3.08-11,6.89-13.15l105.42-60.87c3.81-2.2,6.89.13,6.89,5.2v43.33C640.4,275.32,637.32,281.21,633.51,283.4Z"/><path class="cls-6" d="M728.24,228.71l-74,42.7c-4.18,2.42-7.56-.15-7.56-5.72V224.18c0-5.57,3.38-12,7.56-14.45l74-42.7c4.18-2.41,7.56.15,7.56,5.72v41.51C735.8,219.83,732.42,226.3,728.24,228.71Z"/><text class="cls-41" transform="matrix(0.9, -0.52, 0, 1, 342.94, 434.4)">Speed</text><path class="cls-6" d="M731.08,339.85,527.25,457.53c-3.34,1.93-6-.12-6-4.57V407.4c0-4.45,2.71-9.63,6-11.56L731.08,278.17c3.34-1.93,6,.11,6,4.57v45.55C737.12,332.75,734.42,337.92,731.08,339.85Z"/><text class="cls-41" transform="matrix(0.9, -0.52, 0, 1, 342.94, 547.17)">Time</text><text class="cls-42" transform="matrix(0.9, -0.52, 0, 1, 544.34, 209.13)">2.34</text><text class="cls-42" transform="matrix(0.9, -0.52, 0, 1, 661.54, 141.47)">km</text><text class="cls-43" transform="matrix(0.9, -0.52, 0, 1, 656.92, 256.35)">km/h</text><text class="cls-42" transform="matrix(0.9, -0.52, 0, 1, 557.55, 311.63)">35</text><text class="cls-42" transform="matrix(0.9, -0.52, 0, 1, 535.11, 438.07)">4 minutes</text></g></g></svg>